<svg xmlns="http://www.w3.org/2000/svg" xmlns:xlink="http://www.w3.org/1999/xlink" viewBox="0 0 1078.2 312.85"><defs><style>.cls-1{fill:none;}.cls-2{clip-path:url(#clip-path);}.cls-3{fill:url(#radial-gradient);}.cls-4{fill:#fff;}.cls-5{fill:#004987;}.cls-6{fill:#00754a;}</style><clipPath id="clip-path"><path class="cls-1" d="M211.23,156.66c0,42.3-33.92,76.59-75.76,76.59S59.68,199,59.68,156.66s33.93-76.61,75.79-76.61,75.76,34.31,75.76,76.61"/></clipPath><radialGradient id="radial-gradient" cx="192.41" cy="558.51" r="5.19" gradientTransform="matrix(13.93, 0, 0, -14.08, -2548.9, 8001.05)" gradientUnits="userSpaceOnUse"><stop offset="0" stop-color="#fff"/><stop offset="0.29" stop-color="#efeeee"/><stop offset="0.45" stop-color="#dfdedf"/><stop offset="0.76" stop-color="#b4b6b7"/><stop offset="1" stop-color="#8e9193"/></radialGradient></defs><title>Asset 1mdpi</title><g id="Layer_2" data-name="Layer 2"><g id="Layer_1-2" data-name="Layer 1"><g class="cls-2"><rect class="cls-3" x="59.68" y="80.05" width="151.55" height="153.2"/></g><path class="cls-4" d="M208.5,158.72q1.22,2,2.43,4.12l.26-.15c-.84-1.51-1.7-3-2.57-4.37a47,47,0,0,0,1.89-12.5h-.31A46.86,46.86,0,0,1,208.4,158a94.48,94.48,0,0,0-11-14.64A46.93,46.93,0,0,0,199,131.43a44.85,44.85,0,0,0-.92-8.87,40.64,40.64,0,0,1,8,6.35l.23-.23a41.19,41.19,0,0,0-8.31-6.56,56.11,56.11,0,0,0-8-19.22l-.25.17a56,56,0,0,1,7.93,18.85,46.9,46.9,0,0,0-16.48-5.67,39.57,39.57,0,0,0-6.26-13.68,42.72,42.72,0,0,1,14.53.2l.06-.32a43.56,43.56,0,0,0-14.8-.17,44.58,44.58,0,0,0-11.19-10.84,45.1,45.1,0,0,1,6.82-3.1l-.1-.31a45.2,45.2,0,0,0-7,3.2,49.78,49.78,0,0,0-16.11-7c.65-1,1.32-2,2-3l-.25-.19c-.75,1-1.45,2-2.11,3.08a52.45,52.45,0,0,0-11.86-1.36h-.34a52,52,0,0,0-7.75.62c-.44-1-.89-2-1.38-2.88l-.28.14c.48.9.91,1.84,1.33,2.79a50.44,50.44,0,0,0-16.54,5.69,36.31,36.31,0,0,0-5.28-2.82l-.12.29a35.49,35.49,0,0,1,5.08,2.71,46.27,46.27,0,0,0-13.12,11A51.3,51.3,0,0,0,85.23,99v.31a50.75,50.75,0,0,1,11.06,1.26,40.39,40.39,0,0,0-7.05,13.18,53.86,53.86,0,0,0-15.63,4.3,62.82,62.82,0,0,1,4-11.18l-.56.75a53.86,53.86,0,0,0-3.76,10.59c-1.79.83-3.59,1.75-5.4,2.81l.16.28a56.22,56.22,0,0,1,5.14-2.68,55.69,55.69,0,0,0-1.69,12.77,46.53,46.53,0,0,0,1,9.62,66.1,66.1,0,0,0-10.65,12.32,44.8,44.8,0,0,1-.88-8.82h-.31a45.57,45.57,0,0,0,1,9.19c-.7,1-1.39,2.12-2.06,3.24l.27.17c.62-1,1.25-2,1.89-3A52.64,52.64,0,0,0,70,173,81.71,81.71,0,0,0,65.84,184a41.59,41.59,0,0,1-4.16-10.05l-.31.08a41.75,41.75,0,0,0,4.35,10.38c-.13.44-.27.86-.39,1.3l.3.09c.09-.34.21-.67.31-1a66.11,66.11,0,0,0,17.47,18.88c-.27,2.59-.48,5.23-.6,7.89l.32,0q.16-3.89.59-7.69a91.06,91.06,0,0,0,18.84,10.72c0,3.74.21,7.61.49,11.67l.32,0c-.29-4-.44-7.83-.48-11.5a93,93,0,0,0,20.82,6c.09,3.82.21,7.68.4,11.59l.31,0c-.18-3.88-.3-7.7-.39-11.51a79.77,79.77,0,0,0,12.69,1c2.4,0,4.78-.12,7.15-.31.06,3.84.1,7.68.14,11.54h.31c0-3.86-.09-7.71-.14-11.56a87.79,87.79,0,0,0,19.71-4.06c-.13,3.6-.36,7.31-.7,11.17l.31,0c.35-3.89.58-7.66.72-11.31a84.88,84.88,0,0,0,18.89-9.06c.06,2.53.06,5.13,0,7.81l.32,0c.09-2.76.09-5.44,0-8.05a67.71,67.71,0,0,0,18-17,27,27,0,0,1,.08,2.83h.31a29.49,29.49,0,0,0-.1-3.23,51.17,51.17,0,0,0,7-14l-.31-.1a49.79,49.79,0,0,1-6.75,13.6,45.25,45.25,0,0,0-3.35-12.67A54.94,54.94,0,0,0,208.5,158.72Zm-.22-.36a54.49,54.49,0,0,1-10.05,18.81,83.67,83.67,0,0,0-9.29-16.39,50.4,50.4,0,0,0,8.4-17.09A95.38,95.38,0,0,1,208.28,158.36Zm-83.2-37.5a7.48,7.48,0,0,0,.48,2.63,121.24,121.24,0,0,0-17.34,8.67,23.55,23.55,0,0,1-2.06-7.46C112.22,123.16,118.55,122,125.08,120.86Zm.37-.37h0A7.6,7.6,0,0,1,126,118H126l.06-.31h0a8,8,0,0,1,1.56-2.26h0l0,0a9.62,9.62,0,0,1,5.79-2.76h.15a8.22,8.22,0,0,1,1-.06,9.94,9.94,0,0,1,1.82.17s0,0,0,.06l.31.06v0a9.27,9.27,0,0,1,5.45,3.32s0,0,0,0l.18.26s0,0,0,0a7.54,7.54,0,0,1,1.44,4.39,5.12,5.12,0,0,1,0,.69l-.39,0,0,.33h.37a7.82,7.82,0,0,1-2.44,4.63l-.17-.15-.21.23.14.13A9.73,9.73,0,0,1,134.6,129a10.74,10.74,0,0,1-1.14-.06,2.14,2.14,0,0,0,.06-.27l-.3-.07c0,.1,0,.19-.07.3a9.67,9.67,0,0,1-5.2-2.44.1.1,0,0,1,0,0l-.19-.25a.26.26,0,0,0-.1.07,8.32,8.32,0,0,1-1.74-2.59l.07,0-.11-.29-.07,0a7.32,7.32,0,0,1-.47-2.57h0l.11,0Zm4,7.66c-3.36,5.72-6.41,11.12-9.15,16.36a28.6,28.6,0,0,1-6.89-5,129.94,129.94,0,0,1,14.25-12.84,10,10,0,0,0,5.39,2.54c-1.45,6.11-2.74,12.2-3.86,18.32a30.92,30.92,0,0,1-8.62-2.88c2.74-5.23,5.79-10.64,9.14-16.35Zm18.69,16.93a31.27,31.27,0,0,1-8.81,2.63q-1.32-9.22-3.15-18.42l-.31.06c1.23,6.12,2.26,12.26,3.14,18.39a32.78,32.78,0,0,1-4.23.28,31.41,31.41,0,0,1-5.27-.44c1.1-6.11,2.4-12.2,3.85-18.31a11.92,11.92,0,0,0,1.21.07,10.08,10.08,0,0,0,6.69-2.47,172.91,172.91,0,0,1,14.05,13.45,29,29,0,0,1-6.88,4.62c-2.81-5.53-5.92-11-9.31-16.61l-.26.17C142.27,134.07,145.37,139.56,148.17,145.08Zm-19,2.77c-1.11,6.17-2.07,12.34-2.84,18.58a50.63,50.63,0,0,1-13.86-4.36c2.27-5.62,4.94-11.27,8-17.13A31.68,31.68,0,0,0,129.16,147.85Zm.32.05a33.24,33.24,0,0,0,5.33.44,31.83,31.83,0,0,0,4.28-.28c.88,6.2,1.59,12.41,2.18,18.65a52.74,52.74,0,0,1-6.19.41h-.34a52.5,52.5,0,0,1-8.1-.64Q127.79,157.14,129.48,147.9Zm9.92.11a31.31,31.31,0,0,0,8.91-2.65,160.9,160.9,0,0,1,7.53,17.31,50.86,50.86,0,0,1-14.26,4Q140.71,157.33,139.4,148Zm9.19-2.78a29.49,29.49,0,0,0,7-4.68,115.27,115.27,0,0,1,11.69,14.93,47.56,47.56,0,0,1-11.11,7.06A158.17,158.17,0,0,0,148.59,145.23Zm7.18-4.9a25.93,25.93,0,0,0,5-6.38,112.07,112.07,0,0,1,14.81,12,43.48,43.48,0,0,1-7.37,8.66l-.78.67A113.79,113.79,0,0,0,155.77,140.33Zm-.2-.23a174.64,174.64,0,0,0-14-13.45,8.51,8.51,0,0,0,1.66-2.18,96.69,96.69,0,0,1,17.38,9.3A26.16,26.16,0,0,1,155.57,140.1Zm-12.23-15.9a8.1,8.1,0,0,0,.7-2.37,105.85,105.85,0,0,1,19.45,2.43,23.3,23.3,0,0,1-2.77,9.24A95.78,95.78,0,0,0,143.34,124.2Zm-17.66-.41a8.29,8.29,0,0,0,1.78,2.66,132.85,132.85,0,0,0-14.24,12.84,25.21,25.21,0,0,1-4.85-6.84A119.37,119.37,0,0,1,125.68,123.79ZM113,139.53a113.71,113.71,0,0,0-11.92,14.83,42.65,42.65,0,0,1-8.38-10.55,112.35,112.35,0,0,1,15.38-11.2A26.07,26.07,0,0,0,113,139.53Zm.22.23a29.34,29.34,0,0,0,6.94,5c-3,5.86-5.72,11.51-8,17.13a47.41,47.41,0,0,1-10.85-7.35A111.18,111.18,0,0,1,113.23,139.76Zm-1.17,22.46a131.34,131.34,0,0,0-5.71,17.5,65.07,65.07,0,0,1-14.17-8.46,106.11,106.11,0,0,1,9-16.43A47.29,47.29,0,0,0,112.06,162.22Zm.28.15a50.75,50.75,0,0,0,13.94,4.38c-.75,6-1.33,12-1.76,18.16a70.51,70.51,0,0,1-17.88-5.06A134,134,0,0,1,112.34,162.37Zm14.26,4.42a53.12,53.12,0,0,0,8.14.65h.34a53.4,53.4,0,0,0,6.22-.41c.57,6.07,1,12.17,1.36,18.27a73,73,0,0,1-7.45.38,73.84,73.84,0,0,1-10.38-.73C125.26,178.83,125.85,172.79,126.6,166.79Zm15,.2A51.1,51.1,0,0,0,156,163a133.87,133.87,0,0,1,5.11,18,70.75,70.75,0,0,1-18.09,4.3Q142.46,176.11,141.62,167Zm14.62-4.15a47.49,47.49,0,0,0,11.18-7.1,95.38,95.38,0,0,1,8.78,17.06,65.63,65.63,0,0,1-14.85,8A133,133,0,0,0,156.24,162.84Zm11.42-7.3c.27-.24.54-.46.81-.71a43,43,0,0,0,7.39-8.66,108.85,108.85,0,0,1,12.69,14.61,58.93,58.93,0,0,1-12.08,11.82A95.8,95.8,0,0,0,167.66,155.54ZM176,145.9a38.87,38.87,0,0,0,5.65-14.77,64.48,64.48,0,0,1,15.41,12.28,49.92,49.92,0,0,1-8.35,17.11A109.73,109.73,0,0,0,176,145.9Zm-.23-.22a111.44,111.44,0,0,0-14.82-12,23.66,23.66,0,0,0,2.82-9.35A67.21,67.21,0,0,1,181.38,131,38.72,38.72,0,0,1,175.8,145.68Zm-12-21.67c0-.56.07-1.12.07-1.68a23.22,23.22,0,0,0-.83-6.15,74.46,74.46,0,0,1,17.8.35,38,38,0,0,1,1,8.29,38.55,38.55,0,0,1-.42,5.8A67.31,67.31,0,0,0,163.83,124Zm-.25-1.68c0,.54,0,1.07-.06,1.61a106.87,106.87,0,0,0-19.44-2.42c0-.24,0-.47,0-.71a8.44,8.44,0,0,0-.13-1.33,128.68,128.68,0,0,1,18.76-3.27A23,23,0,0,1,163.58,122.33Zm-19.65-3.16a8,8,0,0,0-1.31-2.93,92.14,92.14,0,0,1,15.62-8.8,24.54,24.54,0,0,1,4.44,8.46A128.33,128.33,0,0,0,143.93,119.17Zm-1.5-3.18a8.92,8.92,0,0,0-2-1.91,94.56,94.56,0,0,1,10.57-13,27.83,27.83,0,0,1,7,6.1A91,91,0,0,0,142.43,116Zm-2.27-2.08a10.17,10.17,0,0,0-3.37-1.39,105.56,105.56,0,0,1,4.09-15.31,30.91,30.91,0,0,1,9.84,3.71A94.4,94.4,0,0,0,140.16,113.91Zm-3.68-1.45a10.6,10.6,0,0,0-1.88-.17c-.35,0-.68,0-1,0a138.05,138.05,0,0,0-2.52-15.49,31.63,31.63,0,0,1,9.52.29A104.52,104.52,0,0,0,136.48,112.46Zm-3.21-.08a10.17,10.17,0,0,0-3.23,1l-1.13-1.85a123.78,123.78,0,0,0-7.79-11.76,30.9,30.9,0,0,1,9.63-2.83A140.38,140.38,0,0,1,133.27,112.38Zm-4.63-.74,1.12,1.84a9.13,9.13,0,0,0-2.16,1.57,148.48,148.48,0,0,0-15.15-8.87,28.28,28.28,0,0,1,8.39-6.31A126,126,0,0,1,128.64,111.64Zm-1.27,3.63a8.36,8.36,0,0,0-1.61,2.37l-3.78-.8c-4.51-1-9.35-2-14.44-2.7a25,25,0,0,1,4.68-7.71A147.16,147.16,0,0,1,127.37,115.27Zm-5.45,1.88c1.27.28,2.5.53,3.72.79a7.84,7.84,0,0,0-.55,2.6c-6.54,1.11-12.88,2.3-19,3.85,0-.68-.1-1.36-.1-2.06a22.87,22.87,0,0,1,1.4-7.89C112.53,115.13,117.39,116.17,121.92,117.15Zm-16.2,5.18c0,.72,0,1.43.1,2.14a97.78,97.78,0,0,0-17.61,6.18,37.92,37.92,0,0,1-.42-5.24,37.41,37.41,0,0,1,1.69-11.33,70.74,70.74,0,0,1,17.62.32A23.57,23.57,0,0,0,105.72,122.33Zm.13,2.46a23.39,23.39,0,0,0,2.11,7.53,111.86,111.86,0,0,0-15.4,11.22A38.34,38.34,0,0,1,88.26,131,97.6,97.6,0,0,1,105.85,124.79Zm-13.54,19a94.57,94.57,0,0,0-12.8,13.63,48.84,48.84,0,0,1-6.71-16.23,64.87,64.87,0,0,1,15.17-10A39,39,0,0,0,92.31,143.75Zm.16.28a43.13,43.13,0,0,0,8.45,10.59,105.39,105.39,0,0,0-9,16.43,56.6,56.6,0,0,1-12.24-13.39A95,95,0,0,1,92.47,144Zm-.67,27.32A106.94,106.94,0,0,0,86,188.85,68.88,68.88,0,0,1,70.37,173a84.11,84.11,0,0,1,9.11-15.09A57.19,57.19,0,0,0,91.8,171.35Zm.25.21A65.31,65.31,0,0,0,106.27,180a124.91,124.91,0,0,0-3.09,18.49A81.77,81.77,0,0,1,86.24,189,108.26,108.26,0,0,1,92.05,171.56Zm14.51,8.6a70.67,70.67,0,0,0,17.94,5.06q-.66,9.33-.83,18.93a85.49,85.49,0,0,1-20.19-5.5A124.92,124.92,0,0,1,106.56,180.16Zm18.25,5.1a72.81,72.81,0,0,0,17.88.35c.36,6.35.61,12.71.8,19.09-2.5.22-5.05.35-7.62.35a83.62,83.62,0,0,1-11.89-.86C124.1,197.8,124.36,191.49,124.81,185.26Zm18.19.32a71.82,71.82,0,0,0,18.12-4.29,138.21,138.21,0,0,1,2.55,19.21,88.26,88.26,0,0,1-19.86,4.18C143.62,198.3,143.36,191.92,143,185.58Zm18.42-4.42a65.87,65.87,0,0,0,14.9-8.06A96.9,96.9,0,0,1,181.53,192,81.5,81.5,0,0,1,164,200.38,138.74,138.74,0,0,0,161.42,181.16Zm15.17-8.24A58.81,58.81,0,0,0,188.74,161,81.87,81.87,0,0,1,198,177.45a69.84,69.84,0,0,1-16.2,14.32A96.51,96.51,0,0,0,176.59,172.92Zm21.1-50.58a45.1,45.1,0,0,1,1,9.09A46.59,46.59,0,0,1,197.19,143a63.56,63.56,0,0,0-15.47-12.25,37.68,37.68,0,0,0-.52-14.2A45.84,45.84,0,0,1,197.69,122.34Zm-16.9-6.15a75.6,75.6,0,0,0-17.8-.33,24.73,24.73,0,0,0-4.44-8.54,65,65,0,0,1,16-4.69A39.37,39.37,0,0,1,180.79,116.19Zm-6.48-13.86a66.52,66.52,0,0,0-16,4.73,27.61,27.61,0,0,0-7.12-6.19,56.17,56.17,0,0,1,11.95-9.26A44.6,44.6,0,0,1,174.31,102.33ZM162.88,91.4A57.85,57.85,0,0,0,151,100.69,30.76,30.76,0,0,0,141,96.91a64.11,64.11,0,0,1,5.9-12.41A49.62,49.62,0,0,1,162.88,91.4Zm-28.32-8.3h.34a52.07,52.07,0,0,1,11.68,1.32,65.65,65.65,0,0,0-5.9,12.42,32.37,32.37,0,0,0-5.87-.53,32,32,0,0,0-3.82.23,74.44,74.44,0,0,0-4.05-12.83A53.05,53.05,0,0,1,134.56,83.1Zm-7.94.67a75.89,75.89,0,0,1,4,12.8,31.38,31.38,0,0,0-9.74,2.9,45.31,45.31,0,0,0-10.69-10.13A50.39,50.39,0,0,1,126.62,83.77Zm-16.69,5.75a45.11,45.11,0,0,1,10.72,10.09,28.66,28.66,0,0,0-8.5,6.43,72,72,0,0,0-15.3-5.63A45.93,45.93,0,0,1,109.93,89.52ZM96.64,100.68a71,71,0,0,1,15.29,5.6,25.51,25.51,0,0,0-4.71,7.81,71.35,71.35,0,0,0-17.64-.35A40.14,40.14,0,0,1,96.64,100.68ZM71.76,131.43a55.82,55.82,0,0,1,1.75-13,54,54,0,0,1,15.62-4.36,37.8,37.8,0,0,0-1.65,11.29,38.81,38.81,0,0,0,.44,5.4,64.5,64.5,0,0,0-15.19,10A46.09,46.09,0,0,1,71.76,131.43ZM61.9,153.81a65.67,65.67,0,0,1,10.63-12.4,49.48,49.48,0,0,0,6.77,16.23,84.2,84.2,0,0,0-9.14,15.05A52.45,52.45,0,0,1,61.9,153.81Zm4.16,30.54a81,81,0,0,1,4.16-11,69.22,69.22,0,0,0,15.67,15.85,115.09,115.09,0,0,0-2.43,14.09A65.21,65.21,0,0,1,66.06,184.35ZM83.75,203.5a117.85,117.85,0,0,1,2.42-14.14,80.89,80.89,0,0,0,17,9.48c-.44,4.9-.63,10-.58,15.39A90.86,90.86,0,0,1,83.75,203.5Zm19.13,10.87c0-5.4.14-10.5.58-15.39a86,86,0,0,0,20.2,5.49q-.14,7.84,0,15.93A92.71,92.71,0,0,1,102.88,214.37Zm33.84,7.13a80.11,80.11,0,0,1-12.71-1c-.11-5.4-.13-10.71,0-16a83.52,83.52,0,0,0,11.89.85c2.57,0,5.12-.1,7.63-.32.16,5.35.28,10.74.36,16.13C141.5,221.37,139.12,221.5,136.72,221.5Zm7.46-.35q-.13-8.1-.36-16.15a86.21,86.21,0,0,0,19.87-4.19c.32,5.17.41,10.56.22,16.24A86.6,86.6,0,0,1,144.18,221.15Zm20-4.2c.19-5.68.11-11.08-.22-16.23a82.29,82.29,0,0,0,17.59-8.43,112.3,112.3,0,0,1,1.51,15.56A82.39,82.39,0,0,1,164.22,217Zm37.2-26.38a67.38,67.38,0,0,1-18,17.08,112.54,112.54,0,0,0-1.53-15.55,70.17,70.17,0,0,0,16.26-14.33A44.83,44.83,0,0,1,201.42,190.57Z"/><path class="cls-5" d="M129.57,233c-38.94-3.37-69.79-37.41-69.79-77.54,0-16.52,6.52-30.72,14.21-44C90,83.94,177,35.9,266.31,0c-20.8,4.17-61.2,16.79-83.13,23.7C146.07,35.4,111.45,49.63,82,65.12c-4.2,2.36-8,4-16.9,9.32C20.64,101-6.09,138.13,1.19,168.69c5.57,23.36,30.34,43.2,64.92,54.27,17.48,5.19,37.37,9.41,58.34,10.33,1.77,0,3-.13,4.76-.12Z"/><path class="cls-6" d="M141.24,80.16c38.95,3.37,70,37.14,70,77.28,0,16.52-6,30.72-13.66,44C181.6,228.9,94,277,4.69,312.85c20.8-4.17,61.2-16.78,83.12-23.7,37.13-11.7,71.74-25.92,101.23-41.42,4.2-2.36,8-4,16.9-9.32,44.41-26.6,71.16-63.69,63.88-94.26-5.58-23.35-30.34-43.18-64.93-54.26-17.48-5.18-37-9.36-58-10.06a49.4,49.4,0,0,0-5.63.18Z"/><path class="cls-6" d="M584.91,95.94l1.35-2.81h2.25a8.14,8.14,0,0,1-.72-3.52c0-4.48,3-6.06,5.5-6.06a6.19,6.19,0,0,1,4.87,2.36l.22.27-1.81,2.15-.3-.29a5.28,5.28,0,0,0-3-1.68c-1.61,0-2.58,1.21-2.58,3.25,0,2.36.84,3.52,2.58,3.52h5.57l-1.43,2.81Z"/><polygon class="cls-6" points="307.91 201.08 307.91 164.63 328.53 164.63 328.53 169.57 313.33 169.57 313.33 180.23 328 180.23 328 185.16 313.33 185.16 313.33 196.13 329 196.13 329 201.08 307.91 201.08 307.91 201.08"/><path class="cls-6" d="M339.88,176.61H340a10.74,10.74,0,0,1,8.29-4.25c5.25,0,9.45,3.63,9.45,11.3v17.28h-5.5V183.59c0-4.11-2.1-6.8-5.44-6.8-2.41,0-4.33,1.13-6.92,4.06v20.09h-5.51v-28h5.51v3.67Z"/><polygon class="cls-6" points="360.79 172.94 366.78 172.94 374.26 190.15 381.56 172.94 387.43 172.94 375.19 201.51 373.34 201.51 360.79 172.94 360.79 172.94"/><path class="cls-6" d="M397.2,200.94h-5.51v-28h5.51v28Zm-2.72-33.19a3.31,3.31,0,1,1,3.28-3.31,3.32,3.32,0,0,1-3.28,3.31Z"/><path class="cls-6" d="M411,172.94v6.41h.13c2.78-4.91,5.43-7,8-7,2.24,0,4.33,1.08,6.61,3.25l-2.91,4.8c-1.66-1.61-3.82-2.74-5.12-2.74-3.77,0-6.74,3.8-6.74,8.61v14.66h-5.51v-28Z"/><path class="cls-6" d="M432,186.66c0,5.92,3.65,9.85,9,9.85,5.81,0,9.45-3.75,9.45-9.79a9.09,9.09,0,0,0-9.45-9.36c-5.2,0-9,3.93-9,9.3Zm24.06,0c0,8.85-6.13,14.85-15,14.85-8.53,0-14.65-6.25-14.65-14.85a14.27,14.27,0,0,1,14.65-14.3c8.72,0,15,6,15,14.3Z"/><path class="cls-6" d="M467.58,176.61h.13a10.69,10.69,0,0,1,8.27-4.25c5.26,0,9.46,3.63,9.46,11.3v17.28H480V183.59c0-4.11-2.11-6.8-5.45-6.8-2.4,0-4.33,1.13-6.92,4.06v20.09h-5.5v-28h5.5v3.67Z"/><path class="cls-6" d="M498.38,172.94v3.67c2.83-2.87,5.5-4.25,8.09-4.25a9.18,9.18,0,0,1,8.28,5.06c2.4-2.74,5.32-5.06,9.28-5.06,5.63,0,9.21,4.37,9.21,11v17.59h-5.49V183.59c0-4.24-2.6-6.55-5.76-6.55-1.79-.06-4.21,1.51-6.18,3.57v20.33h-5.5v-17.4c0-4.56-2.3-6.5-5-6.5s-4.64.88-6.92,3.57v20.33h-5.51v-28Z"/><path class="cls-6" d="M559,184.1c-.17-4.25-2.59-6.93-6.47-6.93-4.21,0-6.74,2.5-7.5,6.93Zm5,14.09a18,18,0,0,1-11.08,3.32c-8.65,0-13.47-7.19-13.47-14.91,0-8.49,5.31-14.24,13-14.24,7.36,0,12.06,5.06,12.06,15.41H544.93c.88,5.56,4,8.42,9.33,8.42,3.34,0,6.49-1.24,9.73-3.36v5.36Z"/><path class="cls-6" d="M575.79,176.61h.13a10.71,10.71,0,0,1,8.29-4.25c5.25,0,9.44,3.63,9.44,11.3v17.28h-5.5V183.59c0-4.11-2.1-6.8-5.43-6.8-2.42,0-4.33,1.13-6.93,4.06v20.09h-5.5v-28h5.5v3.67Z"/><path class="cls-6" d="M607.76,172.94h8.77v5h-8.77v14.35c0,3.31,2.34,4.24,4,4.24a11.93,11.93,0,0,0,6.26-2.07v5.19a16.49,16.49,0,0,1-6.69,1.88c-6,0-9-3.75-9-8.81V177.92h-4.82v-.62l10.33-10.17v5.81Z"/><path class="cls-6" d="M657.92,185.47l-5.57-12.62-5.17,12.62Zm7.1,15.61-4.9-10.74-15.13.07L640.59,201l-5.58.09,15.48-36.58,3.75-.09,16.24,36.67Z"/><path class="cls-6" d="M683.19,177.73a5.33,5.33,0,0,0-5.5,5.06c0,3.05,2.22,5.12,5.57,5.12a5.08,5.08,0,0,0,5.31-5.25,5.23,5.23,0,0,0-5.38-4.93Zm-1.42,24.57c-3.71,0-6.3,1.76-6.3,4.25,0,2.81,2.72,4.31,7.72,4.31,4.83,0,7.68-1.5,7.68-4.05,0-3.56-5.69-4.51-9.1-4.51Zm14.53-25.06h-5.68c2.16,2.18,2.9,3.73,2.9,6.11a10.15,10.15,0,0,1-2.59,6.31c-3.71,4-11.26,2-11.26,5.29,0,1.56,2.89,2.49,8.48,3.61,5.93,1.2,8,4.25,8,7.81,0,5.55-4.88,8.92-13.11,8.92-7.47,0-12.8-3.56-12.8-8.48,0-4.12,2.16-6.56,7-7.74-1.91-1.2-2.77-2.31-2.77-3.56,0-1.81,1.73-3.37,4.39-4v-.12a10.65,10.65,0,0,1-4.63-3.56,9,9,0,0,1-1.5-5.25c0-6,4.65-9.65,12.12-9.65H696.3v4.3Z"/><path class="cls-6" d="M718.82,184.1c-.2-4.25-2.6-6.93-6.51-6.93-4.19,0-6.73,2.5-7.47,6.93Zm4.94,14.09a18,18,0,0,1-11.07,3.32c-8.66,0-13.47-7.19-13.47-14.91,0-8.49,5.31-14.24,13-14.24,7.36,0,12.07,5.06,12.07,15.41H704.72c.86,5.56,4,8.42,9.33,8.42a17.58,17.58,0,0,0,9.71-3.36v5.36Z"/><path class="cls-6" d="M735.56,176.61h.14a10.67,10.67,0,0,1,8.28-4.25c5.25,0,9.46,3.63,9.46,11.3v17.28h-5.5V183.59c0-4.11-2.11-6.8-5.43-6.8-2.42,0-4.35,1.13-7,4.06v20.09h-5.5v-28h5.5v3.67Z"/><path class="cls-6" d="M781.51,180.23c-3.15-2.12-5.25-2.75-7.67-2.75-5,0-8.46,3.81-8.46,9.49s3.71,9.29,9.38,9.29a17.54,17.54,0,0,0,7.37-1.88v5.5a22.6,22.6,0,0,1-8.29,1.63c-8.28,0-14.09-5.81-14.09-14,0-9.24,5.32-15.11,13.72-15.11a17.78,17.78,0,0,1,8,1.95v5.92Z"/><polygon class="cls-6" points="791.7 215.29 785.6 215.29 795.05 194.95 784.3 172.94 790.54 172.94 798.02 188.7 805.2 172.94 811.37 172.94 791.7 215.29 791.7 215.29"/><path class="cls-6" d="M861.13,188.08h9.34l-4.85-11-4.49,11Zm19.53,12.86h-4.4l-4-8.94H859.45l-3.8,8.94h-4.41l12.93-30.54h3l13.45,30.54Z"/><path class="cls-6" d="M888.3,197h5.42c5.07,0,6.44-2.54,6.44-4.8,0-2.76-2.12-4.72-6.66-4.72h-5.2V197Zm0-13.44h2.87c4.26,0,6.36-1.6,6.36-4.85,0-2.27-1.29-4.22-5.26-4.22h-4v9.07Zm-4.34-13h8.75c6.48,0,9.27,3.93,9.27,7.75,0,3.16-1.46,5.21-4.6,6.5v.08c4.49.85,7.24,3.83,7.24,7.93,0,3.74-2.79,8.1-10.33,8.1H884V170.58Z"/><path class="cls-6" d="M934.07,189c0,7.43-4.4,12.33-13.35,12.33-6.36,0-12.54-3.61-12.54-11.88V170.58h4.32v17.94c0,3.42.45,4.85,1.82,6.24a8.76,8.76,0,0,0,6.48,2.57c3.3,0,5.7-1.06,7.05-2.44,1.55-1.56,1.91-3.79,1.91-6.63V170.58h4.31V189Z"/><path class="cls-6" d="M956.67,197h6.88c9.78,0,12-7.52,12-11.26,0-6.09-3.84-11.25-12.25-11.25h-6.67V197Zm-4.33-26.44H964c11.12,0,16,8,16,15.18,0,7.79-6,15.18-16,15.18H952.34V170.58Z"/><polygon class="cls-6" points="1010.88 200.94 1006.55 200.94 1006.55 187.72 989.7 187.72 989.7 200.94 985.38 200.94 985.38 170.58 989.7 170.58 989.7 183.81 1006.55 183.81 1006.55 170.58 1010.88 170.58 1010.88 200.94 1010.88 200.94"/><path class="cls-6" d="M1024.11,188.08h9.36l-4.87-11-4.49,11Zm19.53,12.86h-4.41l-4-8.94h-12.78l-3.79,8.94h-4.42l12.92-30.54h3.07l13.43,30.54Z"/><path class="cls-6" d="M1051.28,197h5.41c5.1,0,6.46-2.54,6.46-4.8,0-2.76-2.11-4.72-6.66-4.72h-5.21V197Zm0-13.44h2.86c4.28,0,6.36-1.6,6.36-4.85,0-2.27-1.28-4.22-5.25-4.22h-4v9.07Zm-4.32-13h8.73c6.48,0,9.27,3.93,9.27,7.75,0,3.16-1.46,5.21-4.59,6.5v.08c4.5.85,7.23,3.83,7.23,7.93,0,3.74-2.77,8.1-10.33,8.1H1047V170.58Z"/><polygon class="cls-6" points="1076.15 200.94 1071.82 200.94 1071.82 170.58 1076.15 170.58 1076.15 200.94 1076.15 200.94"/><path class="cls-6" d="M497.63,138.56c6.47,0,9.62-3.92,9.62-12s-3.15-12-9.34-12-18.64,10.23-23.13,23.92Zm-56,3.77a22.17,22.17,0,0,1-11.39-3.11c-1.81,2-4.38,3-7.86,3.1h-66c-4.63,0-9.13-1-10.65-7.66l-2.15-9.93c-1.72-7.6-3.22-9.47-7.63-9.47h-2l6.08,25.28-.58.14a78.88,78.88,0,0,1-15.94,1.56c-10,0-14.9-4.93-14.9-15.09V112.31h4.09V126.6c0,8.33,3.32,11.88,11.09,11.88a63.91,63.91,0,0,0,11.47-1c-4.53-18.74-5-20.21-5.27-20.92a14.73,14.73,0,0,1-.38-1.46l-.87-3.45h5.37c7.41,0,11.12,3,12.82,10.46l2.63,11.6c1,4.86,4.67,4.86,6.66,4.86h65.47c5.29,0,7.55-3,7.55-10V112.31h4v17.37a17.17,17.17,0,0,1-1.09,6.23,17.28,17.28,0,0,0,9.11,2.65h30V100.11h3.94V127.8c8.32-13.89,19.13-17,22.72-17,8.55,0,13.64,5.9,13.64,15.8,0,5.42-1.33,9.52-4,12.19a11.87,11.87,0,0,1-2.26,1.77,12.91,12.91,0,0,1-6.79,1.77Z"/><path class="cls-6" d="M531.15,120.1c-4.14,0-8.31,2.87-8.31,9.3,0,5.81,2.9,9.16,8,9.16H536V121l-.55-.17a12.66,12.66,0,0,0-4.3-.71Zm-7.23,36.41-1.71-3.69,1,0c.53,0,1.06,0,1.58,0,7.31,0,10.74-3.25,11.16-10.55h-5.4c-5.6,0-11.58-3.37-11.58-12.87s6.24-12.93,12.07-12.93a28,28,0,0,1,8.49,1.24l.45.13v20.66h30.38c5.4,0,7.61-2.9,7.61-10V112.31h4v17.37c0,8.24-3.69,12.5-11,12.64H540c-.34,9.55-5.19,14.18-14.83,14.18Z"/><polygon class="cls-6" points="590.7 142.33 590.7 100.11 594.72 100.11 594.72 142.33 590.7 142.33 590.7 142.33"/><path class="cls-6" d="M928.08,105.38l1.19-2.38h2.48l-.18-.33a7.75,7.75,0,0,1-.7-3.45c0-4.28,2.86-5.8,5.32-5.8A6.05,6.05,0,0,1,941,95.87l-1.59,1.82a5.43,5.43,0,0,0-3.26-1.89c-1.7,0-2.76,1.31-2.76,3.42,0,2.54.9,3.78,2.76,3.78h5.27l-1.26,2.38Z"/><path class="cls-6" d="M725.68,105.38l1.18-2.38h2.48l-.18-.33a7.89,7.89,0,0,1-.7-3.45c0-4.28,2.86-5.8,5.32-5.8a6.05,6.05,0,0,1,4.85,2.45L737,97.69a5.43,5.43,0,0,0-3.26-1.89c-1.71,0-2.77,1.31-2.77,3.42,0,2.54.91,3.78,2.77,3.78h5.27l-1.26,2.38Z"/><polygon class="cls-6" points="326.03 154.98 326.03 148.45 329.25 148.45 329.25 154.98 326.03 154.98 326.03 154.98"/><polygon class="cls-6" points="569.55 154.77 569.55 148.45 572.77 148.45 572.77 154.77 569.55 154.77 569.55 154.77"/><polygon class="cls-6" points="420.75 154.77 420.75 148.45 423.98 148.45 423.98 154.77 420.75 154.77 420.75 154.77"/><polygon class="cls-6" points="320.59 154.98 320.59 148.45 323.81 148.45 323.81 154.98 320.59 154.98 320.59 154.98"/><polygon class="cls-6" points="500.08 106.54 500.08 100 503.3 100 503.3 106.54 500.08 106.54 500.08 106.54"/><polygon class="cls-6" points="657.57 106.84 657.57 100.23 660.79 100.23 660.79 106.84 657.57 106.84 657.57 106.84"/><polygon class="cls-6" points="663.6 106.84 663.6 100.23 666.82 100.23 666.82 106.84 663.6 106.84 663.6 106.84"/><polygon class="cls-6" points="888.18 106.84 888.18 100.23 891.4 100.23 891.4 106.84 888.18 106.84 888.18 106.84"/><polygon class="cls-6" points="894.21 106.84 894.21 100.23 897.42 100.23 897.42 106.84 894.21 106.84 894.21 106.84"/><path class="cls-6" d="M657.47,116.27c-4.29,0-5.6,1.94-5.6,8.32,0,7.22,2.06,7.76,5.19,7.76a20.76,20.76,0,0,0,5.26-.73V116.71a18,18,0,0,0-4.85-.44Zm146.75,26.08a22.78,22.78,0,0,1-11.28-2.95,10.8,10.8,0,0,1-7.71,2.93H774.38a22.79,22.79,0,0,1-11.29-2.95,10.87,10.87,0,0,1-7.73,2.93H744.52a22.91,22.91,0,0,1-11.3-2.95c-1.85,1.87-4.38,2.83-7.7,2.93h-63.2V137a21.55,21.55,0,0,1-5.33.72c-7.46,0-10.52-3.81-10.52-13.14s3.5-13.7,11-13.7a31.37,31.37,0,0,1,9.48,1.42l.57.15v24.85h57.12c4.92,0,6.92-2.7,6.92-9.37V112.49h5.2v16.57a17.78,17.78,0,0,1-.94,6,16.46,16.46,0,0,0,8.35,2.29h10.31c4.93,0,6.93-2.7,6.93-9.37V112.49h5.2v16.57a17.78,17.78,0,0,1-.94,6,16.49,16.49,0,0,0,8.35,2.29h10.33c4.91,0,6.92-2.7,6.92-9.37V112.49h5.18v16.57a18.08,18.08,0,0,1-.92,6,16.51,16.51,0,0,0,8.35,2.29H826c5,0,7-2.63,7-9.37V100.28h5.27v28.78c0,8.44-3.69,12.89-11,13.25l-.57,0Z"/><polygon class="cls-6" points="845.74 142.35 845.74 100.28 850.99 100.28 850.99 142.35 845.74 142.35 845.74 142.35"/><path class="cls-6" d="M888.19,116.27c-4.85,0-7.21,2.72-7.21,8.32,0,6.82,3.27,7.76,6.79,7.76a20.91,20.91,0,0,0,5.28-.73V116.71a18.2,18.2,0,0,0-4.86-.44Zm172.08,21v-2.52c0-4.51-1.17-6.42-3.89-6.42-3.41,0-4.08,2.35-4.08,6.42v2.52Zm-71.47,5a22.77,22.77,0,0,1-11.27-2.95,10.88,10.88,0,0,1-7.73,2.93H947.09a22.84,22.84,0,0,1-11.29-2.95,10.86,10.86,0,0,1-7.72,2.93h-35V137a21.75,21.75,0,0,1-5.34.72c-8.05,0-12.12-4.43-12.12-13.14s4.6-13.7,12.6-13.7a31.32,31.32,0,0,1,9.48,1.42l.56.15v24.85h28.92c5,0,7-2.7,7-9.37V112.49h5.2v16.57a17.82,17.82,0,0,1-.94,6,16.51,16.51,0,0,0,8.34,2.29h22.13c5,0,7-2.7,7-9.37V112.49H981v16.57a18.31,18.31,0,0,1-.92,6,16.45,16.45,0,0,0,8.34,2.29h58.77v-2.52c0-10,5.74-11.53,9.15-11.53s9.08,1.5,9.08,11.53v2.52h7.48v-8c0-8.3-5.34-14.33-12.69-14.33a18.86,18.86,0,0,0-8.46,1.61l-.85.38-1.21-4.9.62-.25a27.07,27.07,0,0,1,10-1.94c8.9,0,17.87,5.86,17.87,18.94v13.5Z"/><polygon class="cls-6" points="967.11 155.45 967.11 148.83 970.32 148.83 970.32 155.45 967.11 155.45 967.11 155.45"/><polygon class="cls-6" points="973.14 155.45 973.14 148.83 976.36 148.83 976.36 155.45 973.14 155.45 973.14 155.45"/><polygon class="cls-6" points="750.14 155.45 750.14 148.83 753.36 148.83 753.36 155.45 750.14 155.45 750.14 155.45"/><polygon class="cls-6" points="756.17 155.45 756.17 148.83 759.39 148.83 759.39 155.45 756.17 155.45 756.17 155.45"/><polygon class="cls-6" points="783.53 155.45 783.53 148.83 786.75 148.83 786.75 155.45 783.53 155.45 783.53 155.45"/><path class="cls-6" d="M840.23,187.62H823.92v-4h16.31Z"/><path class="cls-6" d="M629.66,128.77H613.34v-4h16.32Z"/></g></g></svg>